<svg width="43" height="35" viewBox="0 0 43 35" fill="none" xmlns="http://www.w3.org/2000/svg">
<rect x="2.71886" y="0.464945" width="40.3402" height="30.9783" rx="6.5" transform="rotate(4.17261 2.71886 0.464945)" fill="white"/>
<rect x="2.71886" y="0.464945" width="40.3402" height="30.9783" rx="6.5" transform="rotate(4.17261 2.71886 0.464945)" stroke="#E3E3E3"/>
<path d="M30.0069 24.09L26.3171 24.3506L22.0638 14.7174L21.8393 26.1015L18.2034 26.3583L18.5211 9.01278L23.3151 8.67417L27.9791 19.5235L31.0449 8.1282L35.7043 7.7991L38.4839 24.9258L34.6594 25.196L32.7872 13.6351L30.0069 24.09Z" fill="#121212"/>
<path d="M5.75156 26.2431L7.10201 7.73225L14.8534 8.29775C17.2058 8.46937 18.9968 9.16219 20.2264 10.3762C21.456 11.5902 21.9977 13.1999 21.8514 15.2052C21.7037 17.2299 20.9334 18.7535 19.5406 19.7762C18.1686 20.7811 16.2967 21.197 13.925 21.0239L10.2228 20.7538L9.8008 26.5385L5.75156 26.2431ZM17.7443 14.9056C17.8104 13.9994 17.5807 13.2944 17.0553 12.7909C16.5506 12.2694 15.768 11.97 14.7075 11.8927L10.8896 11.6141L10.4845 17.1674L14.3023 17.4459C15.3628 17.5233 16.1799 17.3503 16.7536 16.9269C17.3479 16.4856 17.6782 15.8119 17.7443 14.9056Z" fill="#FE8C3F"/>
</svg>
