<svg width="196" height="41" viewBox="0 0 196 41" fill="none" xmlns="http://www.w3.org/2000/svg">
<rect x="5.38233" y="3.95742" width="30.9783" height="30.9783" rx="6.5" transform="rotate(11.11 5.38233 3.95742)" fill="white"/>
<rect x="5.38233" y="3.95742" width="30.9783" height="30.9783" rx="6.5" transform="rotate(11.11 5.38233 3.95742)" stroke="#E3E3E3"/>
<path d="M8.48189 30.542L12.0583 12.3299L19.6846 13.8275C21.9991 14.282 23.6933 15.186 24.7672 16.5397C25.8412 17.8933 26.1845 19.5566 25.797 21.5296C25.4058 23.5216 24.4572 24.9411 22.9511 25.788C21.4677 26.6198 19.5593 26.8066 17.2259 26.3483L13.5834 25.6331L12.4658 31.3244L8.48189 30.542ZM21.7562 20.7361C21.9313 19.8445 21.7885 19.117 21.3277 18.5536C20.8897 17.9751 20.1489 17.5833 19.1055 17.3784L15.3493 16.6408L14.2763 22.1044L18.0326 22.8421C19.076 23.047 19.908 22.9739 20.5286 22.6229C21.1719 22.2567 21.5811 21.6278 21.7562 20.7361Z" fill="#FE8C3F"/>
<rect x="78.0546" y="7.78158" width="30.9783" height="30.9783" rx="6.5" transform="rotate(-4.0402 78.0546 7.78158)" fill="white"/>
<rect x="78.0546" y="7.78158" width="30.9783" height="30.9783" rx="6.5" transform="rotate(-4.0402 78.0546 7.78158)" stroke="#E3E3E3"/>
<path d="M97.2561 30.4371L93.2929 30.7171L88.7246 20.3702L88.4835 32.5976L84.5782 32.8734L84.9194 14.2431L90.0686 13.8794L95.0781 25.5324L98.3709 13.293L103.375 12.9395L106.361 31.3349L102.253 31.625L100.242 19.2078L97.2561 30.4371Z" fill="#FE8C3F"/>
<path d="M35.8657 32.29C33.7777 32.29 32.115 31.739 30.8777 30.637C29.6404 29.535 29.0217 28.0367 29.0217 26.142V17.5H32.9947V25.707C32.9947 26.6737 33.246 27.4277 33.7487 27.969C34.2514 28.491 34.957 28.752 35.8657 28.752C36.7744 28.752 37.48 28.491 37.9827 27.969C38.4854 27.4277 38.7367 26.6737 38.7367 25.707V17.5H42.7097V26.142C42.7097 27.9787 42.0814 29.4673 40.8247 30.608C39.568 31.7293 37.915 32.29 35.8657 32.29ZM51.789 20.719C50.8416 20.719 50.0973 20.9993 49.556 21.56C49.0146 22.1207 48.744 22.894 48.744 23.88V32H44.771V17.5H47.584L48.338 18.979C48.8406 18.4183 49.4593 17.9833 50.194 17.674C50.9286 17.3647 51.7406 17.21 52.63 17.21C54.4473 17.21 55.9263 17.7707 57.067 18.892C58.2076 19.994 58.778 21.4537 58.778 23.271V32H54.805V23.88C54.805 22.9133 54.5246 22.1497 53.964 21.589C53.4226 21.009 52.6976 20.719 51.789 20.719ZM70.5649 27.128H74.5089C74.2575 28.6747 73.4939 29.9217 72.2179 30.869C70.9612 31.8163 69.4145 32.29 67.5779 32.29C65.3352 32.29 63.4985 31.594 62.0679 30.202C60.6565 28.7907 59.9509 26.9733 59.9509 24.75C59.9509 22.5073 60.6372 20.69 62.0099 19.298C63.4019 17.906 65.1999 17.21 67.4039 17.21C69.5692 17.21 71.3092 17.8963 72.6239 19.269C73.9579 20.6417 74.6249 22.4493 74.6249 24.692C74.6249 24.8273 74.6152 24.9917 74.5959 25.185C74.5959 25.359 74.5862 25.5813 74.5669 25.852H63.8659C64.0205 26.8573 64.4169 27.6307 65.0549 28.172C65.7122 28.694 66.5532 28.955 67.5779 28.955C68.3512 28.955 68.9989 28.8003 69.5209 28.491C70.0429 28.1623 70.3909 27.708 70.5649 27.128ZM67.2879 20.458C66.3792 20.458 65.6445 20.69 65.0839 21.154C64.5232 21.5987 64.1365 22.2753 63.9239 23.184H70.7099C70.5745 22.3333 70.1975 21.6663 69.5789 21.183C68.9602 20.6997 68.1965 20.458 67.2879 20.458Z" fill="#121212"/>
<path d="M119.056 27.128H123C122.748 28.6747 121.985 29.9217 120.709 30.869C119.452 31.8163 117.905 32.29 116.069 32.29C113.826 32.29 111.989 31.594 110.559 30.202C109.147 28.7907 108.442 26.9733 108.442 24.75C108.442 22.5073 109.128 20.69 110.501 19.298C111.893 17.906 113.691 17.21 115.895 17.21C118.06 17.21 119.8 17.8963 121.115 19.269C122.449 20.6417 123.116 22.4493 123.116 24.692C123.116 24.8273 123.106 24.9917 123.087 25.185C123.087 25.359 123.077 25.5813 123.058 25.852H112.357C112.511 26.8573 112.908 27.6307 113.546 28.172C114.203 28.694 115.044 28.955 116.069 28.955C116.842 28.955 117.49 28.8003 118.012 28.491C118.534 28.1623 118.882 27.708 119.056 27.128ZM115.779 20.458C114.87 20.458 114.135 20.69 113.575 21.154C113.014 21.5987 112.627 22.2753 112.415 23.184H119.201C119.065 22.3333 118.688 21.6663 118.07 21.183C117.451 20.6997 116.687 20.458 115.779 20.458ZM134.286 27.128H138.23C137.979 28.6747 137.215 29.9217 135.939 30.869C134.683 31.8163 133.136 32.29 131.299 32.29C129.057 32.29 127.22 31.594 125.789 30.202C124.378 28.7907 123.672 26.9733 123.672 24.75C123.672 22.5073 124.359 20.69 125.731 19.298C127.123 17.906 128.921 17.21 131.125 17.21C133.291 17.21 135.031 17.8963 136.345 19.269C137.679 20.6417 138.346 22.4493 138.346 24.692C138.346 24.8273 138.337 24.9917 138.317 25.185C138.317 25.359 138.308 25.5813 138.288 25.852H127.587C127.742 26.8573 128.138 27.6307 128.776 28.172C129.434 28.694 130.275 28.955 131.299 28.955C132.073 28.955 132.72 28.8003 133.242 28.491C133.764 28.1623 134.112 27.708 134.286 27.128ZM131.009 20.458C130.101 20.458 129.366 20.69 128.805 21.154C128.245 21.5987 127.858 22.2753 127.645 23.184H134.431C134.296 22.3333 133.919 21.6663 133.3 21.183C132.682 20.6997 131.918 20.458 131.009 20.458ZM146.646 28.346H149.053V32H146.53C144.461 32 142.953 31.5747 142.006 30.724C141.078 29.8733 140.614 28.5007 140.614 26.606V20.806H138.178V20.226L144.007 14.252H144.587V17.5H148.763V20.806H144.587V26.287C144.587 27.0023 144.751 27.5243 145.08 27.853C145.409 28.1817 145.931 28.346 146.646 28.346ZM156.743 32.29C154.655 32.29 152.993 31.739 151.755 30.637C150.518 29.535 149.899 28.0367 149.899 26.142V17.5H153.872V25.707C153.872 26.6737 154.124 27.4277 154.626 27.969C155.129 28.491 155.835 28.752 156.743 28.752C157.652 28.752 158.358 28.491 158.86 27.969C159.363 27.4277 159.614 26.6737 159.614 25.707V17.5H163.587V26.142C163.587 27.9787 162.959 29.4673 161.702 30.608C160.446 31.7293 158.793 32.29 156.743 32.29ZM165.649 37.51V17.5H168.462L169.187 18.979C169.767 18.399 170.434 17.964 171.188 17.674C171.942 17.3647 172.754 17.21 173.624 17.21C175.654 17.21 177.355 17.9253 178.728 19.356C180.12 20.7867 180.816 22.5847 180.816 24.75C180.816 26.9153 180.12 28.7133 178.728 30.144C177.355 31.5747 175.654 32.29 173.624 32.29C172.85 32.29 172.116 32.1643 171.42 31.913C170.743 31.6617 170.144 31.2943 169.622 30.811V37.51H165.649ZM173.073 20.719C171.971 20.719 171.072 21.096 170.376 21.85C169.68 22.5847 169.332 23.5513 169.332 24.75C169.332 25.9487 169.68 26.9153 170.376 27.65C171.072 28.3847 171.971 28.752 173.073 28.752C174.175 28.752 175.074 28.3847 175.77 27.65C176.466 26.9153 176.814 25.9487 176.814 24.75C176.814 23.5513 176.466 22.5847 175.77 21.85C175.074 21.096 174.175 20.719 173.073 20.719ZM188.009 29.216C188.705 29.216 189.237 29.1097 189.604 28.897C189.971 28.665 190.155 28.3363 190.155 27.911C190.155 27.5243 189.981 27.2343 189.633 27.041C189.285 26.8283 188.695 26.664 187.864 26.548L186.443 26.345C184.819 26.0937 183.591 25.6007 182.76 24.866C181.948 24.112 181.542 23.1163 181.542 21.879C181.542 20.4483 182.074 19.3173 183.137 18.486C184.2 17.6353 185.631 17.21 187.429 17.21C189.285 17.21 190.803 17.6547 191.982 18.544C193.161 19.414 193.751 20.5353 193.751 21.908H190.039C190.039 21.4053 189.807 21.009 189.343 20.719C188.879 20.4097 188.241 20.255 187.429 20.255C186.772 20.255 186.269 20.371 185.921 20.603C185.573 20.8157 185.399 21.125 185.399 21.531C185.399 21.9177 185.573 22.2173 185.921 22.43C186.288 22.6427 186.868 22.8167 187.661 22.952L189.082 23.155C190.783 23.4063 192.04 23.88 192.852 24.576C193.664 25.272 194.07 26.2193 194.07 27.418C194.07 28.8873 193.509 30.0667 192.388 30.956C191.286 31.8453 189.826 32.29 188.009 32.29C186.076 32.29 184.481 31.8067 183.224 30.84C181.967 29.8733 181.339 28.6553 181.339 27.186H185.167C185.167 27.7853 185.428 28.2783 185.95 28.665C186.472 29.0323 187.158 29.216 188.009 29.216Z" fill="#121212"/>
</svg>
